<?xml version="1.0" encoding="UTF-8"?>
<svg xmlns="http://www.w3.org/2000/svg" xmlns:xlink="http://www.w3.org/1999/xlink" width="792.26" height="582.24" viewBox="0 0 792.26 582.24">
<defs>
<g>
<g id="glyph-0-0">
<path d="M 32.359375 -75.71875 C 40.703125 -75.71875 47.082031 -74.242188 51.5 -71.296875 C 55.925781 -68.347656 57.921875 -63.671875 57.484375 -57.265625 C 57.335938 -54.972656 56.582031 -52.675781 55.21875 -50.375 C 53.851562 -48.070312 51.835938 -46.039062 49.171875 -44.28125 C 46.515625 -42.519531 43.175781 -41.28125 39.15625 -40.5625 L 39.15625 -40.34375 C 47.0625 -40.34375 52.882812 -38.523438 56.625 -34.890625 C 60.363281 -31.265625 62.054688 -26.679688 61.703125 -21.140625 C 61.484375 -16.753906 60.203125 -12.976562 57.859375 -9.8125 C 55.523438 -6.644531 52.429688 -4.21875 48.578125 -2.53125 C 44.734375 -0.84375 40.367188 0 35.484375 0 L 4.3125 0 L 4.53125 -3.5625 C 7.257812 -3.632812 9.160156 -4.265625 10.234375 -5.453125 C 11.316406 -6.640625 11.96875 -8.253906 12.1875 -10.296875 C 12.40625 -12.347656 12.585938 -14.703125 12.734375 -17.359375 L 15.09375 -62.671875 C 15.164062 -64.609375 15.273438 -66.273438 15.421875 -67.671875 C 15.566406 -69.078125 15.710938 -70.25 15.859375 -71.1875 C 14.554688 -71.113281 13.238281 -71.039062 11.90625 -70.96875 C 10.582031 -70.894531 9.273438 -70.820312 7.984375 -70.75 L 8.3125 -75.5 C 12.257812 -75.5 16.175781 -75.535156 20.0625 -75.609375 C 23.945312 -75.679688 28.046875 -75.71875 32.359375 -75.71875 Z M 33.875 -37.421875 C 31.707031 -37.421875 29.742188 -37.398438 27.984375 -37.359375 C 26.222656 -37.328125 24.484375 -37.242188 22.765625 -37.109375 L 21.46875 -12.828125 C 21.394531 -10.890625 21.285156 -9.238281 21.140625 -7.875 C 20.992188 -6.507812 20.847656 -5.359375 20.703125 -4.421875 C 21.859375 -4.347656 23.242188 -4.289062 24.859375 -4.25 C 26.472656 -4.21875 27.984375 -4.203125 29.390625 -4.203125 C 30.796875 -4.203125 31.710938 -4.203125 32.140625 -4.203125 C 37.679688 -4.203125 42.226562 -5.566406 45.78125 -8.296875 C 49.34375 -11.035156 51.269531 -15.101562 51.5625 -20.5 C 51.769531 -24.738281 51.066406 -28.097656 49.453125 -30.578125 C 47.835938 -33.054688 45.660156 -34.816406 42.921875 -35.859375 C 40.191406 -36.898438 37.175781 -37.421875 33.875 -37.421875 Z M 32.6875 -71.828125 C 30.382812 -71.828125 28.640625 -71.503906 27.453125 -70.859375 C 26.265625 -70.210938 25.4375 -69.132812 24.96875 -67.625 C 24.5 -66.113281 24.191406 -64.03125 24.046875 -61.375 L 22.96875 -41.3125 C 24.332031 -41.3125 25.695312 -41.328125 27.0625 -41.359375 C 28.4375 -41.398438 29.695312 -41.457031 30.84375 -41.53125 C 34.945312 -41.738281 38.238281 -42.632812 40.71875 -44.21875 C 43.195312 -45.800781 45.007812 -47.796875 46.15625 -50.203125 C 47.3125 -52.617188 47.925781 -55.15625 48 -57.8125 C 48.144531 -61.695312 47.425781 -64.644531 45.84375 -66.65625 C 44.257812 -68.664062 42.257812 -70.03125 39.84375 -70.75 C 37.4375 -71.46875 35.050781 -71.828125 32.6875 -71.828125 Z M 32.6875 -71.828125 "/>
</g>
<g id="glyph-0-1">
<path d="M 35.484375 -55.109375 C 37.640625 -55.109375 40.007812 -54.945312 42.59375 -54.625 C 45.1875 -54.300781 47.632812 -53.851562 49.9375 -53.28125 C 49.363281 -48.96875 48.804688 -44.671875 48.265625 -40.390625 C 47.722656 -36.109375 47.21875 -32.046875 46.75 -28.203125 C 46.289062 -24.359375 45.914062 -20.90625 45.625 -17.84375 C 45.332031 -14.789062 45.1875 -12.398438 45.1875 -10.671875 C 45.1875 -9.234375 45.296875 -7.796875 45.515625 -6.359375 C 45.734375 -4.921875 46.632812 -4.203125 48.21875 -4.203125 C 49.4375 -4.203125 50.78125 -4.992188 52.25 -6.578125 C 53.726562 -8.160156 55.007812 -10.859375 56.09375 -14.671875 L 59.109375 -14.015625 C 58.890625 -12.722656 58.4375 -11.234375 57.75 -9.546875 C 57.070312 -7.859375 56.15625 -6.1875 55 -4.53125 C 53.851562 -2.875 52.453125 -1.503906 50.796875 -0.421875 C 49.148438 0.648438 47.242188 1.1875 45.078125 1.1875 C 42.203125 1.1875 40.15625 0.289062 38.9375 -1.5 C 37.71875 -3.300781 37.109375 -5.640625 37.109375 -8.515625 C 37.109375 -10.609375 37.304688 -12.875 37.703125 -15.3125 C 38.097656 -17.757812 38.546875 -20.3125 39.046875 -22.96875 L 38.71875 -22.96875 C 37 -17.65625 35.21875 -13.394531 33.375 -10.1875 C 31.539062 -6.988281 29.707031 -4.5625 27.875 -2.90625 C 26.039062 -1.257812 24.257812 -0.164062 22.53125 0.375 C 20.8125 0.914062 19.195312 1.1875 17.6875 1.1875 C 13.800781 1.1875 10.546875 -0.25 7.921875 -3.125 C 5.296875 -6 3.984375 -10.816406 3.984375 -17.578125 C 3.984375 -22.609375 4.628906 -27.390625 5.921875 -31.921875 C 7.222656 -36.453125 9.1875 -40.460938 11.8125 -43.953125 C 14.4375 -47.441406 17.722656 -50.171875 21.671875 -52.140625 C 25.628906 -54.117188 30.234375 -55.109375 35.484375 -55.109375 Z M 32.140625 -51.234375 C 28.898438 -51.234375 26.078125 -50.332031 23.671875 -48.53125 C 21.265625 -46.738281 19.269531 -44.3125 17.6875 -41.25 C 16.101562 -38.195312 14.929688 -34.78125 14.171875 -31 C 13.421875 -27.226562 13.046875 -23.367188 13.046875 -19.421875 C 13.046875 -14.816406 13.550781 -11.019531 14.5625 -8.03125 C 15.570312 -5.050781 17.40625 -3.5625 20.0625 -3.5625 C 22 -3.5625 23.957031 -4.53125 25.9375 -6.46875 C 27.914062 -8.414062 29.765625 -11.023438 31.484375 -14.296875 C 33.210938 -17.566406 34.757812 -21.234375 36.125 -25.296875 C 37.5 -29.359375 38.582031 -33.507812 39.375 -37.75 C 40.164062 -41.988281 40.5625 -46.050781 40.5625 -49.9375 C 39.476562 -50.375 38.21875 -50.695312 36.78125 -50.90625 C 35.34375 -51.125 33.796875 -51.234375 32.140625 -51.234375 Z M 32.140625 -51.234375 "/>
</g>
<g id="glyph-0-2">
<path d="M 10.890625 0 C 10.816406 -0.5 10.78125 -0.945312 10.78125 -1.34375 C 10.78125 -1.738281 10.78125 -2.222656 10.78125 -2.796875 C 10.78125 -4.023438 10.816406 -5.484375 10.890625 -7.171875 C 10.960938 -8.859375 11.125 -11.101562 11.375 -13.90625 C 11.625 -16.71875 12.003906 -20.390625 12.515625 -24.921875 C 13.015625 -29.585938 13.40625 -33.109375 13.6875 -35.484375 C 13.976562 -37.859375 14.195312 -39.601562 14.34375 -40.71875 C 14.488281 -41.832031 14.5625 -42.75 14.5625 -43.46875 C 14.632812 -44.90625 14.539062 -46.304688 14.28125 -47.671875 C 14.03125 -49.035156 13.15625 -49.71875 11.65625 -49.71875 C 10.5 -49.71875 9.164062 -48.925781 7.65625 -47.34375 C 6.144531 -45.769531 4.851562 -43.078125 3.78125 -39.265625 L 0.75 -39.90625 C 0.96875 -41.195312 1.414062 -42.6875 2.09375 -44.375 C 2.78125 -46.070312 3.695312 -47.742188 4.84375 -49.390625 C 6 -51.046875 7.40625 -52.410156 9.0625 -53.484375 C 10.71875 -54.566406 12.625 -55.109375 14.78125 -55.109375 C 18.007812 -55.109375 20.160156 -53.992188 21.234375 -51.765625 C 22.316406 -49.535156 22.789062 -46.550781 22.65625 -42.8125 C 22.582031 -41.238281 22.382812 -39.5 22.0625 -37.59375 C 21.738281 -35.6875 21.394531 -33.691406 21.03125 -31.609375 L 21.359375 -31.609375 C 23.441406 -37.859375 25.613281 -42.671875 27.875 -46.046875 C 30.144531 -49.429688 32.445312 -51.785156 34.78125 -53.109375 C 37.125 -54.441406 39.441406 -55.109375 41.734375 -55.109375 C 43.898438 -55.109375 45.703125 -54.550781 47.140625 -53.4375 C 48.578125 -52.320312 49.296875 -50.796875 49.296875 -48.859375 C 49.296875 -47.566406 48.84375 -46.378906 47.9375 -45.296875 C 47.039062 -44.222656 45.835938 -43.6875 44.328125 -43.6875 C 43.035156 -43.6875 41.921875 -44.082031 40.984375 -44.875 C 40.046875 -45.664062 39.507812 -46.78125 39.375 -48.21875 C 37.351562 -48.644531 35.390625 -47.992188 33.484375 -46.265625 C 31.578125 -44.546875 29.78125 -42.082031 28.09375 -38.875 C 26.40625 -35.675781 24.929688 -32.097656 23.671875 -28.140625 C 22.410156 -24.191406 21.421875 -20.164062 20.703125 -16.0625 C 19.984375 -11.96875 19.625 -8.160156 19.625 -4.640625 C 19.625 -3.554688 19.640625 -2.742188 19.671875 -2.203125 C 19.710938 -1.671875 19.769531 -0.9375 19.84375 0 Z M 10.890625 0 "/>
</g>
<g id="glyph-0-3">
<path d="M 21.03125 -81.4375 C 20.738281 -79.414062 20.429688 -77.304688 20.109375 -75.109375 C 19.785156 -72.921875 19.515625 -70.800781 19.296875 -68.75 C 19.085938 -66.707031 18.875 -64.859375 18.65625 -63.203125 C 18.375 -60.035156 18.050781 -56.796875 17.6875 -53.484375 C 17.332031 -50.179688 16.972656 -46.75 16.609375 -43.1875 C 16.253906 -39.632812 15.894531 -35.953125 15.53125 -32.140625 L 15.859375 -32.140625 C 17.296875 -37.316406 18.875 -41.453125 20.59375 -44.546875 C 22.320312 -47.640625 24.117188 -49.941406 25.984375 -51.453125 C 27.859375 -52.960938 29.710938 -53.945312 31.546875 -54.40625 C 33.378906 -54.875 35.085938 -55.109375 36.671875 -55.109375 C 39.984375 -55.109375 42.625 -54.171875 44.59375 -52.296875 C 46.570312 -50.429688 47.992188 -48.007812 48.859375 -45.03125 C 49.722656 -42.050781 50.15625 -38.796875 50.15625 -35.265625 C 50.15625 -30.304688 49.597656 -25.632812 48.484375 -21.25 C 47.367188 -16.863281 45.625 -12.976562 43.25 -9.59375 C 40.875 -6.21875 37.78125 -3.578125 33.96875 -1.671875 C 30.164062 0.234375 25.601562 1.1875 20.28125 1.1875 C 19.125 1.1875 17.71875 1.113281 16.0625 0.96875 C 14.414062 0.820312 12.726562 0.585938 11 0.265625 C 9.269531 -0.0546875 7.648438 -0.503906 6.140625 -1.078125 C 6.648438 -8.128906 7.082031 -14.457031 7.4375 -20.0625 C 7.800781 -25.664062 8.144531 -31.019531 8.46875 -36.125 C 8.789062 -41.238281 9.148438 -46.414062 9.546875 -51.65625 C 9.941406 -56.90625 10.390625 -62.660156 10.890625 -68.921875 C 11.035156 -70.785156 11.144531 -71.96875 11.21875 -72.46875 C 11.289062 -72.976562 11.398438 -73.703125 11.546875 -74.640625 C 10.242188 -74.566406 8.945312 -74.492188 7.65625 -74.421875 C 6.363281 -74.347656 5.070312 -74.273438 3.78125 -74.203125 L 4.203125 -78.515625 C 7.367188 -78.515625 9.847656 -78.660156 11.640625 -78.953125 C 13.441406 -79.242188 14.789062 -79.601562 15.6875 -80.03125 C 16.59375 -80.457031 17.332031 -80.925781 17.90625 -81.4375 Z M 33.546875 -50.046875 C 31.535156 -49.972656 29.578125 -48.945312 27.671875 -46.96875 C 25.765625 -44.988281 24.019531 -42.398438 22.4375 -39.203125 C 20.851562 -36.003906 19.445312 -32.445312 18.21875 -28.53125 C 17 -24.613281 16.03125 -20.625 15.3125 -16.5625 C 14.59375 -12.5 14.195312 -8.664062 14.125 -5.0625 C 14.988281 -4.207031 16.191406 -3.582031 17.734375 -3.1875 C 19.285156 -2.789062 20.742188 -2.59375 22.109375 -2.59375 C 25.273438 -2.664062 27.953125 -3.363281 30.140625 -4.6875 C 32.335938 -6.019531 34.15625 -7.816406 35.59375 -10.078125 C 37.03125 -12.347656 38.144531 -14.863281 38.9375 -17.625 C 39.726562 -20.394531 40.265625 -23.21875 40.546875 -26.09375 C 40.835938 -28.976562 40.945312 -31.75 40.875 -34.40625 C 40.800781 -39.289062 40.1875 -43.15625 39.03125 -46 C 37.882812 -48.84375 36.054688 -50.191406 33.546875 -50.046875 Z M 33.546875 -50.046875 "/>
</g>
<g id="glyph-0-4">
</g>
<g id="glyph-0-5">
<path d="M 29.234375 1.71875 C 26.492188 1.71875 23.34375 1.394531 19.78125 0.75 C 16.226562 0.101562 13.085938 -1.113281 10.359375 -2.90625 L 10.671875 0.859375 L 5.0625 0.859375 L 5.609375 -22.109375 L 9.8125 -22.109375 C 9.882812 -17.722656 10.800781 -14.09375 12.5625 -11.21875 C 14.320312 -8.34375 16.710938 -6.21875 19.734375 -4.84375 C 22.753906 -3.476562 26.171875 -2.796875 29.984375 -2.796875 C 32.785156 -2.796875 35.410156 -3.300781 37.859375 -4.3125 C 40.304688 -5.320312 42.316406 -6.832031 43.890625 -8.84375 C 45.472656 -10.851562 46.335938 -13.296875 46.484375 -16.171875 C 46.703125 -19.773438 45.859375 -22.742188 43.953125 -25.078125 C 42.046875 -27.410156 39.582031 -29.40625 36.5625 -31.0625 C 33.539062 -32.71875 30.34375 -34.335938 26.96875 -35.921875 C 23.65625 -37.503906 20.488281 -39.210938 17.46875 -41.046875 C 14.445312 -42.878906 12.019531 -45.160156 10.1875 -47.890625 C 8.351562 -50.617188 7.546875 -54.035156 7.765625 -58.140625 C 7.910156 -60.003906 8.359375 -62.015625 9.109375 -64.171875 C 9.867188 -66.328125 11.109375 -68.410156 12.828125 -70.421875 C 14.554688 -72.441406 16.859375 -74.082031 19.734375 -75.34375 C 22.609375 -76.601562 26.238281 -77.234375 30.625 -77.234375 C 33.363281 -77.234375 36.40625 -76.851562 39.75 -76.09375 C 43.09375 -75.34375 46.203125 -73.882812 49.078125 -71.71875 L 48.859375 -76.359375 L 54.359375 -76.359375 L 53.171875 -52.640625 L 49.296875 -52.640625 C 49.296875 -56.085938 48.644531 -59.359375 47.34375 -62.453125 C 46.050781 -65.546875 44.070312 -68.0625 41.40625 -70 C 38.75 -71.9375 35.300781 -72.90625 31.0625 -72.90625 C 26.601562 -72.90625 23.078125 -71.628906 20.484375 -69.078125 C 17.898438 -66.523438 16.535156 -63.5625 16.390625 -60.1875 C 16.242188 -57.382812 16.875 -54.992188 18.28125 -53.015625 C 19.6875 -51.035156 21.570312 -49.304688 23.9375 -47.828125 C 26.3125 -46.359375 28.898438 -44.976562 31.703125 -43.6875 C 34.515625 -42.320312 37.359375 -40.9375 40.234375 -39.53125 C 43.109375 -38.125 45.75 -36.503906 48.15625 -34.671875 C 50.5625 -32.835938 52.445312 -30.625 53.8125 -28.03125 C 55.1875 -25.445312 55.765625 -22.320312 55.546875 -18.65625 C 55.398438 -14.707031 54.25 -11.1875 52.09375 -8.09375 C 49.9375 -5 46.929688 -2.585938 43.078125 -0.859375 C 39.234375 0.859375 34.617188 1.71875 29.234375 1.71875 Z M 29.234375 1.71875 "/>
</g>
<g id="glyph-0-6">
<path d="M 41.421875 1.1875 C 38.679688 1.1875 36.394531 0.0703125 34.5625 -2.15625 C 32.726562 -4.382812 30.878906 -7.976562 29.015625 -12.9375 C 27.648438 -16.539062 26.425781 -19.128906 25.34375 -20.703125 C 24.269531 -22.285156 22.6875 -23.113281 20.59375 -23.1875 C 20.09375 -23.1875 19.625 -23.164062 19.1875 -23.125 C 18.757812 -23.09375 18.296875 -23.078125 17.796875 -23.078125 C 17.003906 -20.128906 16.375 -17.160156 15.90625 -14.171875 C 15.4375 -11.191406 15.203125 -8.375 15.203125 -5.71875 C 15.203125 -4.632812 15.21875 -3.644531 15.25 -2.75 C 15.289062 -1.851562 15.347656 -0.9375 15.421875 0 L 6.578125 0 C 6.503906 -0.5 6.46875 -0.945312 6.46875 -1.34375 C 6.46875 -1.738281 6.46875 -2.222656 6.46875 -2.796875 C 6.46875 -4.816406 6.578125 -7.820312 6.796875 -11.8125 C 7.015625 -15.800781 7.300781 -20.347656 7.65625 -25.453125 C 8.019531 -30.554688 8.414062 -35.804688 8.84375 -41.203125 C 9.269531 -46.597656 9.753906 -51.722656 10.296875 -56.578125 C 10.835938 -61.429688 11.359375 -65.546875 11.859375 -68.921875 C 12.148438 -70.785156 12.347656 -71.96875 12.453125 -72.46875 C 12.566406 -72.976562 12.691406 -73.703125 12.828125 -74.640625 C 11.609375 -74.566406 10.351562 -74.492188 9.0625 -74.421875 C 7.769531 -74.347656 6.507812 -74.273438 5.28125 -74.203125 L 5.71875 -78.515625 C 8.882812 -78.515625 11.347656 -78.660156 13.109375 -78.953125 C 14.867188 -79.242188 16.179688 -79.601562 17.046875 -80.03125 C 17.910156 -80.457031 18.628906 -80.925781 19.203125 -81.4375 L 22.328125 -81.4375 C 21.960938 -79.632812 21.617188 -77.617188 21.296875 -75.390625 C 20.972656 -73.160156 20.664062 -70.96875 20.375 -68.8125 C 20.09375 -66.65625 19.84375 -64.75 19.625 -63.09375 C 18.976562 -58.0625 18.382812 -52.8125 17.84375 -47.34375 C 17.3125 -41.882812 16.863281 -36.457031 16.5 -31.0625 L 16.828125 -31.0625 C 18.984375 -37.457031 21.191406 -42.378906 23.453125 -45.828125 C 25.722656 -49.285156 28.078125 -51.695312 30.515625 -53.0625 C 32.960938 -54.425781 35.445312 -55.109375 37.96875 -55.109375 C 40.476562 -55.109375 42.488281 -54.550781 44 -53.4375 C 45.507812 -52.320312 46.625 -50.863281 47.34375 -49.0625 C 48.0625 -47.269531 48.421875 -45.40625 48.421875 -43.46875 C 48.421875 -40.945312 47.664062 -38.320312 46.15625 -35.59375 C 44.65625 -32.863281 42.375 -30.4375 39.3125 -28.3125 C 36.257812 -26.1875 32.359375 -24.695312 27.609375 -23.84375 L 27.609375 -23.734375 C 30.128906 -23.660156 32.050781 -23.066406 33.375 -21.953125 C 34.707031 -20.835938 35.953125 -18.910156 37.109375 -16.171875 C 37.898438 -14.523438 38.671875 -12.835938 39.421875 -11.109375 C 40.179688 -9.378906 40.988281 -7.9375 41.84375 -6.78125 C 42.707031 -5.632812 43.644531 -4.992188 44.65625 -4.859375 C 45.875 -4.785156 46.914062 -5.210938 47.78125 -6.140625 C 48.644531 -7.078125 49.398438 -8.878906 50.046875 -11.546875 L 53.0625 -11 C 52.632812 -8.988281 51.929688 -7.046875 50.953125 -5.171875 C 49.984375 -3.304688 48.707031 -1.78125 47.125 -0.59375 C 45.550781 0.59375 43.648438 1.1875 41.421875 1.1875 Z M 18.65625 -26.203125 C 25.488281 -26.203125 30.703125 -27.675781 34.296875 -30.625 C 37.890625 -33.570312 39.6875 -37.78125 39.6875 -43.25 C 39.6875 -44.1875 39.578125 -45.191406 39.359375 -46.265625 C 39.148438 -47.347656 38.6875 -48.285156 37.96875 -49.078125 C 37.25 -49.867188 36.132812 -50.191406 34.625 -50.046875 C 32.675781 -49.898438 30.710938 -48.710938 28.734375 -46.484375 C 26.765625 -44.253906 24.914062 -41.359375 23.1875 -37.796875 C 21.457031 -34.242188 19.945312 -30.378906 18.65625 -26.203125 Z M 18.65625 -26.203125 "/>
</g>
<g id="glyph-0-7">
<path d="M 30.84375 -55.109375 C 34.726562 -55.109375 38.21875 -54.191406 41.3125 -52.359375 C 44.40625 -50.523438 46.847656 -47.847656 48.640625 -44.328125 C 50.441406 -40.804688 51.34375 -36.53125 51.34375 -31.5 C 51.34375 -25.738281 50.296875 -20.359375 48.203125 -15.359375 C 46.117188 -10.367188 43.117188 -6.363281 39.203125 -3.34375 C 35.285156 -0.320312 30.523438 1.1875 24.921875 1.1875 C 20.171875 1.1875 16.265625 0.109375 13.203125 -2.046875 C 10.148438 -4.203125 7.882812 -7.113281 6.40625 -10.78125 C 4.9375 -14.445312 4.203125 -18.507812 4.203125 -22.96875 C 4.203125 -28.789062 5.257812 -34.144531 7.375 -39.03125 C 9.5 -43.925781 12.554688 -47.828125 16.546875 -50.734375 C 20.546875 -53.648438 25.3125 -55.109375 30.84375 -55.109375 Z M 29.234375 -51.125 C 26.066406 -51.195312 23.332031 -50.132812 21.03125 -47.9375 C 18.726562 -45.75 16.945312 -42.785156 15.6875 -39.046875 C 14.4375 -35.304688 13.773438 -31.132812 13.703125 -26.53125 C 13.628906 -24.082031 13.769531 -21.492188 14.125 -18.765625 C 14.488281 -16.035156 15.117188 -13.484375 16.015625 -11.109375 C 16.910156 -8.734375 18.164062 -6.789062 19.78125 -5.28125 C 21.40625 -3.769531 23.441406 -2.976562 25.890625 -2.90625 C 28.765625 -2.832031 31.207031 -3.601562 33.21875 -5.21875 C 35.226562 -6.84375 36.84375 -8.945312 38.0625 -11.53125 C 39.289062 -14.125 40.207031 -16.894531 40.8125 -19.84375 C 41.425781 -22.789062 41.769531 -25.5625 41.84375 -28.15625 C 41.914062 -30.664062 41.789062 -33.25 41.46875 -35.90625 C 41.144531 -38.570312 40.515625 -41.054688 39.578125 -43.359375 C 38.648438 -45.660156 37.359375 -47.507812 35.703125 -48.90625 C 34.046875 -50.3125 31.890625 -51.050781 29.234375 -51.125 Z M 29.234375 -51.125 "/>
</g>
<g id="glyph-1-0">
<path d="M 13.609375 -11.46875 C 14.421875 -11.34375 15.160156 -11.015625 15.828125 -10.484375 C 16.503906 -9.953125 17.035156 -9.289062 17.421875 -8.5 C 17.816406 -7.707031 18.015625 -6.863281 18.015625 -5.96875 C 18.015625 -4.84375 17.726562 -3.828125 17.15625 -2.921875 C 16.582031 -2.015625 15.742188 -1.300781 14.640625 -0.78125 C 13.546875 -0.257812 12.253906 0 10.765625 0 L 2.453125 0 L 2.453125 -22.265625 L 10.453125 -22.265625 C 11.960938 -22.265625 13.25 -22.015625 14.3125 -21.515625 C 15.375 -21.015625 16.171875 -20.335938 16.703125 -19.484375 C 17.242188 -18.640625 17.515625 -17.679688 17.515625 -16.609375 C 17.515625 -15.296875 17.15625 -14.207031 16.4375 -13.34375 C 15.726562 -12.476562 14.785156 -11.851562 13.609375 -11.46875 Z M 5.375 -12.65625 L 10.25 -12.65625 C 11.613281 -12.65625 12.664062 -12.972656 13.40625 -13.609375 C 14.15625 -14.253906 14.53125 -15.140625 14.53125 -16.265625 C 14.53125 -17.390625 14.15625 -18.269531 13.40625 -18.90625 C 12.664062 -19.550781 11.59375 -19.875 10.1875 -19.875 L 5.375 -19.875 Z M 10.515625 -2.390625 C 11.960938 -2.390625 13.085938 -2.726562 13.890625 -3.40625 C 14.703125 -4.09375 15.109375 -5.046875 15.109375 -6.265625 C 15.109375 -7.492188 14.679688 -8.460938 13.828125 -9.171875 C 12.984375 -9.890625 11.847656 -10.25 10.421875 -10.25 L 5.375 -10.25 L 5.375 -2.390625 Z M 10.515625 -2.390625 "/>
</g>
<g id="glyph-1-1">
<path d="M 5.375 -19.90625 L 5.375 -12.46875 L 13.484375 -12.46875 L 13.484375 -10.0625 L 5.375 -10.0625 L 5.375 -2.390625 L 14.4375 -2.390625 L 14.4375 0 L 2.453125 0 L 2.453125 -22.296875 L 14.4375 -22.296875 L 14.4375 -19.90625 Z M 5.375 -19.90625 "/>
</g>
<g id="glyph-1-2">
<path d="M 15.625 -4.953125 L 5.90625 -4.953125 L 4.125 0 L 1.046875 0 L 9.109375 -22.140625 L 12.46875 -22.140625 L 20.484375 0 L 17.421875 0 Z M 14.796875 -7.3125 L 10.765625 -18.5625 L 6.734375 -7.3125 Z M 14.796875 -7.3125 "/>
</g>
<g id="glyph-1-3">
<path d="M 5.296875 -22.265625 L 5.296875 -8.1875 C 5.296875 -6.195312 5.78125 -4.722656 6.75 -3.765625 C 7.726562 -2.804688 9.078125 -2.328125 10.796875 -2.328125 C 12.503906 -2.328125 13.84375 -2.804688 14.8125 -3.765625 C 15.78125 -4.722656 16.265625 -6.195312 16.265625 -8.1875 L 16.265625 -22.265625 L 19.171875 -22.265625 L 19.171875 -8.21875 C 19.171875 -6.363281 18.796875 -4.800781 18.046875 -3.53125 C 17.304688 -2.257812 16.300781 -1.316406 15.03125 -0.703125 C 13.757812 -0.0859375 12.335938 0.21875 10.765625 0.21875 C 9.191406 0.21875 7.769531 -0.0859375 6.5 -0.703125 C 5.226562 -1.316406 4.222656 -2.257812 3.484375 -3.53125 C 2.753906 -4.800781 2.390625 -6.363281 2.390625 -8.21875 L 2.390625 -22.265625 Z M 5.296875 -22.265625 "/>
</g>
<g id="glyph-1-4">
<path d="M 16.171875 -22.265625 L 16.171875 -19.90625 L 10.09375 -19.90625 L 10.09375 0 L 7.1875 0 L 7.1875 -19.90625 L 1.09375 -19.90625 L 1.09375 -22.265625 Z M 16.171875 -22.265625 "/>
</g>
<g id="glyph-1-5">
<path d="M 18.046875 -22.265625 L 10.796875 -8.40625 L 10.796875 0 L 7.890625 0 L 7.890625 -8.40625 L 0.609375 -22.265625 L 3.828125 -22.265625 L 9.328125 -10.984375 L 14.828125 -22.265625 Z M 18.046875 -22.265625 "/>
</g>
</g>
</defs>
<path fill="none" stroke-width="2" stroke-linecap="butt" stroke-linejoin="miter" stroke="rgb(61.175537%, 45.097351%, 39.99939%)" stroke-opacity="1" stroke-miterlimit="10" d="M 546.131466 392.238407 C 546.131466 475.080776 478.973607 542.238635 396.131238 542.238635 C 313.28887 542.238635 246.13101 475.080776 246.13101 392.238407 C 246.13101 309.396039 313.28887 242.238179 396.131238 242.238179 C 478.973607 242.238179 546.131466 309.396039 546.131466 392.238407 " transform="matrix(0.998696, 0, 0, -0.998696, 0.146878, 581.480991)"/>
<path fill-rule="evenodd" fill="rgb(16.862488%, 14.117432%, 12.940979%)" fill-opacity="1" d="M 316.066406 172.675781 C 347.375 141.367188 401.453125 124.289062 444.148438 132.828125 C 461.226562 137.097656 474.035156 147.058594 481.148438 158.441406 C 466.917969 152.75 452.6875 148.480469 441.300781 148.480469 C 401.453125 142.789062 353.066406 152.75 316.066406 172.675781 Z M 316.066406 172.675781 "/>
<path fill="none" stroke-width="3.705" stroke-linecap="round" stroke-linejoin="miter" stroke="rgb(16.862488%, 14.117432%, 12.940979%)" stroke-opacity="1" stroke-miterlimit="10" d="M 324.878196 377.989363 C 364.781777 340.941067 427.480699 340.941067 467.380369 377.989363 " transform="matrix(0.998696, 0, 0, -0.998696, 0.146878, 581.480991)"/>
<path fill="none" stroke-width="3.135" stroke-linecap="round" stroke-linejoin="miter" stroke="rgb(16.862488%, 14.117432%, 12.940979%)" stroke-opacity="1" stroke-miterlimit="10" d="M 348.37758 361.585166 L 336.033363 347.770282 " transform="matrix(0.998696, 0, 0, -0.998696, 0.146878, 581.480991)"/>
<path fill="none" stroke-width="3.135" stroke-linecap="round" stroke-linejoin="miter" stroke="rgb(16.862488%, 14.117432%, 12.940979%)" stroke-opacity="1" stroke-miterlimit="10" d="M 371.69313 353.046692 L 364.899118 335.813289 " transform="matrix(0.998696, 0, 0, -0.998696, 0.146878, 581.480991)"/>
<path fill="none" stroke-width="3.135" stroke-linecap="round" stroke-linejoin="miter" stroke="rgb(16.862488%, 14.117432%, 12.940979%)" stroke-opacity="1" stroke-miterlimit="10" d="M 396.131238 350.203141 L 396.131238 331.678993 " transform="matrix(0.998696, 0, 0, -0.998696, 0.146878, 581.480991)"/>
<path fill="none" stroke-width="3.135" stroke-linecap="round" stroke-linejoin="miter" stroke="rgb(16.862488%, 14.117432%, 12.940979%)" stroke-opacity="1" stroke-miterlimit="10" d="M 420.565434 353.046692 L 427.359447 335.813289 " transform="matrix(0.998696, 0, 0, -0.998696, 0.146878, 581.480991)"/>
<path fill="none" stroke-width="3.135" stroke-linecap="round" stroke-linejoin="miter" stroke="rgb(16.862488%, 14.117432%, 12.940979%)" stroke-opacity="1" stroke-miterlimit="10" d="M 443.884896 361.585166 L 456.225202 347.770282 " transform="matrix(0.998696, 0, 0, -0.998696, 0.146878, 581.480991)"/>
<g fill="rgb(16.862488%, 14.117432%, 12.940979%)" fill-opacity="1">
<use xlink:href="#glyph-0-0" x="40.094734" y="479.613958"/>
<use xlink:href="#glyph-0-1" x="106.859586" y="479.613958"/>
<use xlink:href="#glyph-0-2" x="165.966433" y="479.613958"/>
<use xlink:href="#glyph-0-3" x="215.042374" y="479.613958"/>
<use xlink:href="#glyph-0-1" x="270.158431" y="479.613958"/>
<use xlink:href="#glyph-0-2" x="329.265279" y="479.613958"/>
<use xlink:href="#glyph-0-1" x="378.34122" y="479.613958"/>
<use xlink:href="#glyph-0-4" x="437.448067" y="479.613958"/>
<use xlink:href="#glyph-0-5" x="465.81504" y="479.613958"/>
<use xlink:href="#glyph-0-6" x="526.863353" y="479.613958"/>
<use xlink:href="#glyph-0-7" x="582.950143" y="479.613958"/>
<use xlink:href="#glyph-0-6" x="639.144792" y="479.613958"/>
<use xlink:href="#glyph-0-7" x="695.231582" y="479.613958"/>
</g>
<g fill="rgb(16.862488%, 14.117432%, 12.940979%)" fill-opacity="1">
<use xlink:href="#glyph-1-0" x="298.287714" y="541.533135"/>
<use xlink:href="#glyph-1-1" x="333.857285" y="541.533135"/>
<use xlink:href="#glyph-1-2" x="366.231027" y="541.533135"/>
<use xlink:href="#glyph-1-3" x="403.750054" y="541.533135"/>
<use xlink:href="#glyph-1-4" x="441.301038" y="541.533135"/>
<use xlink:href="#glyph-1-5" x="474.569612" y="541.533135"/>
</g>
<path fill="none" stroke-width="1.2" stroke-linecap="round" stroke-linejoin="miter" stroke="rgb(61.175537%, 45.097351%, 39.99939%)" stroke-opacity="1" stroke-miterlimit="10" d="M 180.529867 51.0006 L 270.530004 51.0006 " transform="matrix(0.998696, 0, 0, -0.998696, 0.146878, 581.480991)"/>
<path fill="none" stroke-width="1.2" stroke-linecap="round" stroke-linejoin="miter" stroke="rgb(61.175537%, 45.097351%, 39.99939%)" stroke-opacity="1" stroke-miterlimit="10" d="M 521.728561 51.0006 L 611.728698 51.0006 " transform="matrix(0.998696, 0, 0, -0.998696, 0.146878, 581.480991)"/>
</svg>
